<svg width="21" height="20" viewBox="0 0 21 20" fill="none" xmlns="http://www.w3.org/2000/svg">
<path d="M18.559 10.9646C18.559 11.2239 18.559 11.446 18.5222 11.7052C18.4485 12.7791 18.1538 13.7789 17.7487 14.7047C17.5645 15.075 17.3803 15.4453 17.1593 15.7786C15.5754 18.2966 12.7759 20 9.57127 20C8.20838 20 6.91915 19.7038 5.74043 19.1483C2.71996 17.7041 0.620361 14.5936 0.620361 10.9646C0.620361 7.44677 2.64629 4.37327 5.59309 2.89206C5.37208 3.1883 5.15107 3.52157 4.9669 3.85484C4.9669 3.89187 4.93006 3.89187 4.93006 3.9289C4.81955 4.03999 4.70905 4.11406 4.59854 4.22515C4.4512 4.33624 4.3407 4.48436 4.19336 4.63248C4.15652 4.66951 4.11969 4.70654 4.11969 4.74357C4.08285 4.7806 4.04602 4.81763 4.04602 4.85466L3.89868 5.00278C3.78817 5.11387 3.7145 5.22496 3.64083 5.33605C3.27248 5.81744 2.9778 6.3729 2.71996 6.92835C2.68312 7.00241 2.68312 7.03944 2.64629 7.1135C2.60945 7.18756 2.60945 7.26162 2.57262 7.29865C2.46211 7.37271 2.46211 7.40974 2.46211 7.44677L2.35161 7.78004C2.31477 7.8541 2.31477 7.92816 2.27794 8.00223C2.27794 8.03926 2.2411 8.07629 2.2411 8.11332C2.2411 8.18738 2.20427 8.26144 2.20427 8.3355C2.16743 8.52065 2.09376 8.74283 2.09376 8.96501C2.09376 9.03907 2.09376 9.0761 2.05693 9.15016V10.0759C2.05693 12.5199 3.16198 14.7047 4.93006 16.1489C6.29296 17.2598 8.0242 17.9263 9.90279 17.9263C11.5972 17.9263 13.1811 17.3709 14.4703 16.4451C15.428 15.7786 16.2016 14.8898 16.7541 13.853C16.8278 13.7049 16.9014 13.5938 16.9751 13.4457C17.4171 12.4829 17.675 11.446 17.7118 10.3351V10.0759C17.7118 9.8167 17.7118 9.55749 17.675 9.29828L17.7118 9.33531C17.8223 9.4464 17.9328 9.55749 18.0802 9.63155C18.1907 9.4464 18.3012 9.26125 18.4485 9.11313C18.5222 9.4464 18.559 9.8167 18.5959 10.15C18.5222 10.4462 18.559 10.7054 18.559 10.9646Z" fill="#EC1C24"/>
<path d="M17.675 10.0759V10.3351C17.675 11.9274 17.0119 13.2605 16.9383 13.4456C16.8646 13.5937 16.7909 13.7048 16.7173 13.8529C16.1647 14.8898 15.3544 15.7785 14.4335 16.4451C13.1443 17.3708 11.5604 17.9263 9.86594 17.9263C7.98736 17.9263 6.25611 17.2597 4.89321 16.1488C3.12513 14.7046 2.02008 12.5199 2.02008 10.0759V9.15011C2.02008 9.07605 2.02008 9.03902 2.05692 8.96495C2.09375 8.74277 2.16742 8.52059 2.20426 8.29841C2.20426 8.22435 2.24109 8.15029 2.24109 8.07623C2.24109 8.0392 2.27793 8.00217 2.27793 7.96514C2.31476 7.89108 2.31476 7.81702 2.3516 7.74296C2.38843 7.63187 2.42527 7.55781 2.4621 7.44672C2.4621 7.40969 2.49894 7.37266 2.49894 7.33563C2.53577 7.26157 2.53577 7.18751 2.57261 7.15048C2.60944 7.07642 2.60944 7.03939 2.64628 6.96533C2.90412 6.37284 3.1988 5.85442 3.56715 5.37303C3.64082 5.26194 3.75133 5.15085 3.825 5.03976C3.86183 5.00273 3.89867 4.92867 3.97234 4.89164C4.00917 4.85461 4.00917 4.81758 4.04601 4.78055C4.08284 4.74352 4.11968 4.70648 4.11968 4.66945C4.23018 4.52133 4.37752 4.41024 4.52486 4.26212C4.63537 4.15103 4.74587 4.03994 4.85638 3.96588C4.85638 4.00291 4.81954 4.03994 4.81954 4.03994C4.81954 4.07697 4.78271 4.114 4.78271 4.15103C4.34069 5.07679 4.04601 6.15066 3.9355 7.33563C3.89867 7.63187 3.89867 7.96514 3.89867 8.29841C3.89867 12.4088 6.29295 15.7415 9.27658 15.7415H9.6081C10.0501 15.7415 10.4553 15.6674 10.8605 15.5563C12.8864 15.0009 14.3598 13.1494 14.3598 10.9646V10.8165C14.323 9.52041 13.7705 8.33544 12.8864 7.52078C13.5126 7.52078 14.102 7.63187 14.6545 7.77999C15.7596 8.07623 16.7541 8.59465 17.6013 9.2612L17.6381 9.29823C17.6381 9.55744 17.675 9.81665 17.675 10.0759Z" fill="#F6921E"/>
<path d="M17.675 10.0759V10.3351C17.675 12.0385 16.9383 13.4456 16.9383 13.4827C16.8646 13.6308 16.791 13.7419 16.7173 13.89C16.1648 14.9268 15.3544 15.8156 14.4335 16.5191C13.1075 17.4819 11.4867 18.0003 9.82914 18.0003C8.02422 18.0003 6.25614 17.3708 4.85641 16.2229C3.01466 14.7047 1.98328 12.4828 1.98328 10.1129C1.98328 7.74298 3.05149 5.48414 4.89324 3.96591L4.96691 3.89185C4.96691 3.92888 4.93008 3.92888 4.93008 3.96591C4.93008 4.00294 4.89324 4.03997 4.89324 4.03997C3.08833 5.52117 2.09378 7.74298 2.09378 10.0759C2.09378 12.4458 3.12516 14.6306 4.96691 16.1488C6.29298 17.2968 8.02422 17.9263 9.82914 17.9263C11.4867 17.9263 13.0338 17.4079 14.3967 16.4451C15.3176 15.7785 16.1279 14.8528 16.6805 13.853C16.7541 13.7048 16.8278 13.5938 16.9015 13.4456C16.9015 13.4456 17.675 12.0015 17.6382 10.3351V10.0759C17.6382 9.81668 17.6382 9.55746 17.6013 9.33528V9.29825L17.6382 9.33528L17.675 9.37231V10.0759Z" fill="#F6921E"/>
<path d="M15.5386 5.18788C15.5386 5.18788 9.12927 3.96589 6.14563 9.55744C6.14563 9.55744 6.66132 5.70631 11.2289 3.92886L10.308 2.22547C10.308 2.22547 12.1497 0.559111 15.3544 1.00347L15.5386 5.18788Z" fill="#EC1C24"/>
<path d="M7.61902 8.15033C7.61902 8.15033 10.1606 4.78059 16.0174 5.66931L15.9437 3.70671C15.9437 3.70671 18.3748 3.63265 20.3639 5.33604L17.9328 9.03906C17.9328 9.03906 16.2753 7.07646 12.8128 7.03943C11.3762 7.0024 9.64495 7.18755 7.61902 8.15033Z" fill="#F6921E"/>
<path d="M8.98193 9.44636C8.98193 9.44636 8.42941 9.55745 8.46624 9.29824C8.46624 9.18715 8.53991 9.15012 8.57675 9.18715C8.57675 9.15012 8.46624 9.002 8.72409 8.92794C8.79776 8.81685 8.87143 8.70576 8.90826 8.6317C8.9451 8.55764 8.98193 8.44655 9.20294 8.52061C9.42395 8.55764 9.64496 8.77982 9.6818 8.85388C9.7923 8.85388 9.93964 8.89091 9.90281 8.89091L9.82914 8.96497C9.82914 8.96497 9.90281 9.002 9.6818 9.002C9.6818 9.03903 9.71863 9.07606 9.75547 9.07606C9.7923 9.11309 9.75547 9.11309 9.75547 9.15012C9.75547 9.15012 9.7923 9.26121 9.6818 9.22418C9.57129 9.18715 9.57129 9.15012 9.53446 9.15012C9.49762 9.15012 9.42395 9.15012 9.42395 9.18715C9.42395 9.22418 9.53446 9.29824 9.42395 9.29824C9.38712 9.33527 9.46079 9.3723 9.42395 9.3723C9.38712 9.40933 9.12927 9.59448 9.01877 9.63151C8.90826 9.63151 8.87143 9.59448 8.87143 9.55745C8.87143 9.52042 8.9451 9.48339 9.01877 9.48339C8.98193 9.48339 9.01877 9.44636 8.98193 9.44636Z" fill="#EC1C24"/>
<path d="M8.94506 10.0389C8.90822 10.0389 8.72405 9.92777 8.83455 9.89074C8.90822 9.81668 9.27658 9.5945 9.35025 9.55747C9.42392 9.52043 9.53442 9.63153 9.42391 9.70559C9.31341 9.81668 8.94506 10.0389 8.94506 10.0389Z" fill="#EC1C24"/>
<path d="M9.49762 9.77966C9.49762 9.7056 9.57129 9.48342 9.57129 9.44639C9.57129 9.40936 9.75546 9.37233 9.71863 9.59451C9.64496 9.77966 9.49762 9.85372 9.49762 9.77966Z" fill="#EC1C24"/>
<path d="M9.7554 9.33527C9.7554 9.33527 10.7868 9.29824 10.8605 9.33527C10.9341 9.37231 11.3025 9.92776 11.192 10.4092C11.1183 10.8905 10.971 11.0016 10.3079 11.0757C10.3079 10.9276 10.2711 10.5202 10.1974 10.4092C10.1238 10.2981 9.90274 10.0388 9.82907 10.0388C9.82907 10.1499 9.79224 10.4832 9.79224 10.4832C9.79224 10.4832 9.46072 10.5202 9.42389 10.4462V9.92776C9.42389 9.92776 9.71857 9.66855 9.7554 9.59449C9.79224 9.63152 9.82907 9.77964 10.1606 9.74261C10.1606 9.77964 9.7554 9.81667 9.7554 9.33527Z" fill="#EC1C24"/>
<path d="M9.35028 9.81671C9.35028 9.81671 9.01876 10.0759 8.94509 10.15C8.90826 10.224 8.87142 10.5203 9.27661 10.5203C9.35028 10.3351 9.35028 9.81671 9.35028 9.81671Z" fill="#EC1C24"/>
<path d="M8.57675 10.224C8.46625 10.224 8.39258 10.187 8.39258 10.1129C8.39258 10.0389 8.53992 9.92778 8.65042 9.96481C8.72409 10.0018 8.90827 10.0389 8.90827 10.3721C8.98194 10.4462 9.16611 10.5943 9.42396 10.5943C9.6818 10.5943 9.82914 10.5943 9.82914 10.6684V11.1498C9.82914 11.1498 9.53446 11.1498 8.79776 10.6314C8.72409 10.5573 8.68726 10.4832 8.68726 10.3721C8.68726 10.2611 8.61359 10.224 8.57675 10.224Z" fill="#EC1C24"/>
<path d="M8.35572 10.261C8.24521 10.261 7.87686 10.5573 8.13471 10.6684L8.28205 10.5203C8.28205 10.5203 8.20838 10.7054 8.35572 10.7424C8.50306 10.7795 8.42939 10.6684 8.50306 10.6684C8.53989 10.7424 8.53989 10.7795 8.61356 10.7795C8.68723 10.7795 8.68723 10.5573 8.61356 10.4462C8.57673 10.3351 8.50306 10.261 8.35572 10.261Z" fill="#EC1C24"/>
<path d="M9.90277 10.2981V11.2609C9.90277 11.2609 10.1975 11.1498 10.2343 11.0757C10.2343 10.9276 10.1606 10.2981 9.90277 10.2981Z" fill="#EC1C24"/>
<path d="M9.12921 10.9276C9.12921 10.9276 9.49756 11.1868 9.71857 11.2608C9.68174 11.2979 9.5344 11.52 9.46073 11.483C9.42389 11.483 9.16605 11.1127 9.12921 10.9276Z" fill="#EC1C24"/>
<path d="M7.32434 11.2979H7.84003V11.4831H7.36118L7.32434 11.2979Z" fill="#EC1C24"/>
<path d="M12.8128 11.1868H10.7132L11.0447 11.446H12.8128V11.1868Z" fill="#EC1C24"/>
<path d="M10.308 11.1868C10.3448 11.1498 10.6026 11.3349 10.529 11.372C10.4553 11.409 9.79226 11.6682 9.75543 11.6682C9.68176 11.6312 9.71859 11.4831 9.79226 11.446C9.8291 11.409 10.1974 11.2979 10.308 11.1868Z" fill="#EC1C24"/>
<path d="M9.57123 11.6312C9.49756 11.5941 9.09237 12.0015 9.27655 12.0385C9.46072 12.0755 9.90274 12.1496 10.0133 12.2236C10.1238 12.1866 10.1974 12.0755 10.1974 12.0385C10.2711 12.0385 10.3816 12.1496 10.4921 12.1126C10.6026 12.0755 11.1183 11.7052 11.1183 11.6312C11.0078 11.5571 10.7868 11.409 10.6763 11.409C10.6026 11.3719 9.93958 11.7793 9.57123 11.6312Z" fill="#EC1C24"/>
<path d="M9.35032 12.1496C9.38716 12.1496 9.93968 12.3347 10.0502 12.3347C10.1975 12.2977 10.1975 12.1866 10.2712 12.1866C10.3449 12.1866 10.3817 12.2607 10.4922 12.1866C10.6027 12.1125 10.8606 11.8904 10.8974 11.8533C10.8974 11.9274 10.8974 12.1496 10.4185 12.3718C9.93968 12.5939 8.7978 12.9272 8.76096 13.0753C8.7978 13.0753 8.94514 13.0383 9.05564 13.0013C9.12931 13.0383 9.23982 13.1864 9.20298 13.4456C9.16615 13.7048 8.98197 14.1122 8.98197 14.2233V14.9268C8.98197 14.9639 9.09248 15.2971 8.94514 15.2601C8.7978 15.2231 8.72413 15.2231 8.65046 15.2601C8.57679 15.2601 8.46628 15.3712 8.39261 15.3342C8.28211 15.3342 8.13477 15.2601 8.13477 15.2231C8.13477 15.186 8.24527 15.186 8.35578 15.149C8.46628 15.112 8.50312 15.0009 8.68729 14.9268C8.68729 14.8157 8.61362 13.89 8.61362 13.7048C8.61362 13.5197 8.53995 13.1124 8.65046 12.9642C8.72413 12.7421 9.16615 12.1125 9.35032 12.1496Z" fill="#EC1C24"/>
<path d="M10.0501 12.668C10.0501 12.7421 10.3816 13.5567 10.529 13.5567C10.6763 13.5567 12.0392 13.2605 12.297 13.3716C12.3707 13.4827 12.5181 13.6678 12.5181 13.7789C12.5181 13.7789 12.5549 14.0381 12.5181 14.0751C12.5549 14.0751 12.6654 14.0381 12.7022 13.9641C12.7391 13.89 12.7022 13.5197 12.7022 13.4456C12.7022 13.3716 12.8864 13.0383 12.6654 13.0753C12.4444 13.0753 11.8182 13.0753 11.5972 13.0383C11.413 13.0013 10.9342 12.8902 10.8236 12.9642C10.7131 13.0383 10.5658 13.2235 10.5658 13.2605C10.529 13.2605 10.4921 13.2235 10.5658 13.0753C10.6026 12.9272 10.7868 12.5199 10.75 12.2977C10.6395 12.3347 10.0501 12.668 10.0501 12.668Z" fill="#EC1C24"/>
<path d="M9.27666 11.3719C9.27666 11.409 9.3135 11.483 9.35033 11.5201L8.28211 11.446C8.28211 11.446 8.17161 11.3719 8.20845 11.3349L9.27666 11.3719Z" fill="#EC1C24"/>
<path d="M8.09784 11.2979H9.16606C9.16606 11.2979 9.09239 11.1868 9.05555 11.1127H8.06101C8.06101 11.1127 7.9505 11.1127 7.9505 11.3349C7.9505 11.3719 8.02417 11.446 8.09784 11.2979Z" fill="#EC1C24"/>
<path d="M7.06654 11.483H7.28755C7.28755 11.483 7.36122 11.446 7.28755 11.3719C7.21388 11.2979 7.06654 11.2238 7.17705 11.0757C7.06654 11.0757 6.9192 11.0387 6.95604 11.3719H6.84553C6.84553 11.3719 6.8087 11.1868 6.55085 11.1868C6.293 11.1868 5.66681 11.446 5.66681 11.446C5.66681 11.446 6.36667 11.6311 6.55085 11.6311C6.73503 11.6311 6.84553 11.446 6.84553 11.446H6.9192C6.9192 11.446 6.95604 11.5941 6.99287 11.6311V11.8533C6.99287 11.8533 6.88237 11.8904 6.9192 12.0014C6.9192 12.1125 6.99287 12.1125 7.02971 12.1125C7.06654 12.1125 7.06654 12.0755 7.17705 12.0755C7.21388 12.0385 7.17705 11.8904 7.10338 11.8533V11.7052C7.10338 11.7052 7.17705 11.6311 7.17705 11.5941C7.14021 11.52 7.06654 11.5571 7.06654 11.483Z" fill="#EC1C24"/>
<path d="M8.3557 12.5199C8.42937 12.4828 8.46621 12.3718 8.46621 12.3718V11.7422C8.46621 11.5941 8.20836 11.483 8.17153 11.483C8.13469 11.5201 8.06102 11.5571 8.02419 11.5571C7.95052 11.5571 7.91368 11.5571 7.84001 11.483C7.619 11.483 7.5085 11.7422 7.5085 11.7793C7.5085 11.8163 7.47166 12.2977 7.5085 12.3718C7.5085 12.4458 7.58217 12.5199 7.619 12.5569C7.58217 12.705 7.36116 13.5567 7.65584 13.6678V13.8159H8.39254V13.6678C8.61355 13.4827 8.42937 12.7421 8.3557 12.5199ZM7.5085 11.7422C7.5085 11.7052 7.619 11.5201 7.76634 11.5201C7.84001 11.5941 7.91368 11.5941 7.98735 11.5941C8.06102 11.5941 8.13469 11.5201 8.17153 11.5201C8.2452 11.5571 8.39254 11.6312 8.39254 11.7422V12.3718C8.39254 12.4088 8.3557 12.4458 8.31887 12.4828H8.17153V12.1866H7.69267V12.4458H7.58217C7.54533 12.4088 7.5085 12.3718 7.5085 12.2977V11.7422ZM8.02419 13.4827H7.87685C7.84001 13.4827 7.80318 13.4456 7.80318 13.4086C7.80318 13.3716 7.84001 13.3345 7.87685 13.3345H8.02419C8.06102 13.3345 8.09786 13.3716 8.09786 13.4086C8.09786 13.4456 8.06102 13.4827 8.02419 13.4827ZM8.31887 13.5567L7.95052 13.1494L7.619 13.5567C7.39799 13.4827 7.54533 12.8161 7.619 12.5199H8.31887C8.39254 12.8161 8.50304 13.4456 8.31887 13.5567Z" fill="#EC1C24"/>
<path d="M8.20838 12.8161C8.28205 12.705 8.17155 12.631 8.17155 12.631H7.72953C7.58219 12.631 7.61902 12.8161 7.61902 12.8161L7.87687 13.0383C7.95054 13.0383 8.13471 12.9272 8.20838 12.8161Z" fill="#EC1C24"/>
<path d="M8.02423 13.0753L8.28208 13.3716C8.28208 13.3716 8.24524 13.0013 8.24524 12.8902C8.20841 12.9272 8.02423 13.0753 8.02423 13.0753Z" fill="#EC1C24"/>
<path d="M7.65585 12.8902C7.65585 13.0013 7.61902 13.3716 7.61902 13.3716L7.87686 13.0753C7.87686 13.0753 7.72952 12.9272 7.65585 12.8902Z" fill="#EC1C24"/>
<path d="M8.17151 12.1126H8.20835V12.0755C8.20835 12.0385 8.17151 12.0385 8.17151 12.0385H7.76633C7.72949 12.0385 7.72949 12.0755 7.72949 12.0755V12.1126H7.76633H8.17151Z" fill="#EC1C24"/>
<path d="M7.58218 13.8159H7.54535V13.8529C7.54535 13.89 7.58218 13.89 7.58218 13.89H8.31889C8.35572 13.89 8.35572 13.8529 8.35572 13.8529V13.8159H8.31889H7.58218Z" fill="#EC1C24"/>
<path d="M5.11431 11.1868C5.11431 11.1868 2.20434 4.78058 8.98199 0.670227L10.6027 3.66967C10.6027 3.66967 9.49768 4.03997 8.31896 5.07682C7.02973 6.18772 5.66683 8.03923 5.11431 11.1868Z" fill="#F6921E"/>
</svg>
