<svg width="40" height="38" viewBox="0 0 40 38" fill="none" xmlns="http://www.w3.org/2000/svg">
<path d="M34.7979 24.7187L29.185 27.6422C28.9405 26.9457 28.4725 26.3394 27.8467 25.9084C27.221 25.4774 26.4688 25.2433 25.6959 25.2391H21.3637C20.658 25.238 19.9619 25.0838 19.3284 24.7882L18.8816 24.5795C17.6134 23.9824 16.194 23.7362 14.7855 23.8691C13.3771 24.0019 12.0363 24.5085 10.9165 25.3309C10.9063 25.3383 10.8963 25.3461 10.8868 25.3543L9.80813 26.282C9.37071 26.6563 8.84864 26.9302 8.28219 27.0824C8.23316 27.0439 8.1764 27.0152 8.11534 26.9982C8.05428 26.9811 7.99022 26.976 7.92703 26.9833L3.76063 27.4821C3.64255 27.4963 3.53458 27.5526 3.45861 27.6396C3.38265 27.7267 3.34438 27.8379 3.35156 27.9508L3.89063 36.5898C3.89768 36.7032 3.95006 36.8097 4.03704 36.8876C4.12403 36.9655 4.23906 37.0089 4.3586 37.0089C4.37908 37.0089 4.39954 37.0076 4.41985 37.005L10.6783 36.2213C10.7432 36.2131 10.8056 36.1922 10.8615 36.1597C10.9174 36.1273 10.9655 36.0841 11.0027 36.0329C11.0399 35.9817 11.0655 35.9236 11.0776 35.8625C11.0898 35.8014 11.0883 35.7385 11.0734 35.6779L11.054 35.5996L14.2904 33.6221C14.7195 33.3918 15.2258 33.3282 15.7031 33.4446L22.2452 34.6098C24.0141 34.9155 25.8396 34.6665 27.4465 33.9003L38.7677 26.3928C38.8646 26.3285 38.9324 26.2318 38.9574 26.122C38.9825 26.0123 38.9629 25.8976 38.9027 25.801C38.5027 25.1472 37.8493 24.668 37.0823 24.4658C36.3153 24.2636 35.4954 24.3543 34.7979 24.7187ZM4.79617 36.0591L4.31313 28.3138L7.65149 27.9141L10.0343 35.4032L4.79617 36.0591ZM27.3501 32.8833C27.0744 33.0687 26.7773 33.2235 26.4647 33.3449C25.1807 33.8341 23.7775 33.9691 22.4164 33.7341L15.9198 32.5779C15.2074 32.4079 14.4533 32.5065 13.8157 32.8532C13.8084 32.8572 13.8011 32.8614 13.794 32.8658L10.7903 34.701L8.63071 27.9137C9.30035 27.7191 9.91705 27.3877 10.4375 26.9426L11.5016 26.027C12.4826 25.3107 13.6555 24.8701 14.887 24.7555C16.1184 24.6409 17.3591 24.8567 18.4678 25.3786L18.9145 25.5874C19.6768 25.9429 20.5145 26.1284 21.3637 26.1297H25.6959C27.0488 26.1297 28.1769 27.0807 28.4058 28.3294L25.2431 28.1911C24.1066 28.1415 22.9676 28.1919 21.8408 28.3418C21.7261 28.3559 21.6206 28.409 21.544 28.4913C21.4674 28.5736 21.4248 28.6796 21.4241 28.7894C21.4248 28.8528 21.4398 28.9152 21.4679 28.9726C21.4961 29.03 21.5368 29.081 21.5873 29.1223C21.6379 29.1635 21.6971 29.1941 21.7611 29.2118C21.8251 29.2296 21.8923 29.2343 21.9583 29.2254C23.0318 29.0822 24.117 29.0337 25.2 29.0808L28.8953 29.2424C28.9068 29.2428 28.9182 29.243 28.9298 29.2424C28.9862 29.2412 29.0418 29.2301 29.0939 29.2097C29.1801 29.1762 29.2537 29.119 29.3056 29.0456C29.3575 28.9721 29.3853 28.8857 29.3853 28.7972C29.3853 28.7156 29.3814 28.6352 29.3758 28.5551L35.2487 25.499C35.6671 25.2805 36.1512 25.2033 36.6218 25.2802C37.0924 25.357 37.5216 25.5833 37.8392 25.9221L27.3501 32.8833Z" fill="white"/>
<path d="M7.24938 21.213H7.24781C7.18626 21.213 7.12528 21.2244 7.06837 21.2467C7.01147 21.269 6.95974 21.3017 6.91614 21.343C6.82809 21.4264 6.77852 21.5395 6.77832 21.6577C6.77812 21.7758 6.82732 21.8891 6.91509 21.9727C7.00286 22.0564 7.12201 22.1035 7.24633 22.1037L7.70406 22.1051H7.70555C7.82987 22.1053 7.94917 22.0585 8.03722 21.9751C8.12527 21.8918 8.17484 21.7786 8.17504 21.6605C8.17524 21.5424 8.12604 21.429 8.03827 21.3454C7.9505 21.2617 7.83135 21.2146 7.70703 21.2145L7.24938 21.213Z" fill="white"/>
<path d="M8.94404 22.1089L12.145 22.1232H12.1472C12.2715 22.1235 12.3908 22.0768 12.4789 21.9935C12.5671 21.9102 12.6167 21.797 12.617 21.6789C12.6173 21.5608 12.5682 21.4475 12.4805 21.3638C12.3928 21.28 12.2737 21.2329 12.1493 21.2326L8.94849 21.2183H8.94622C8.8219 21.218 8.70256 21.2646 8.61445 21.348C8.52633 21.4313 8.47667 21.5444 8.47638 21.6625C8.47609 21.7806 8.5252 21.894 8.6129 21.9777C8.7006 22.0614 8.81972 22.1086 8.94404 22.1089Z" fill="white"/>
<path d="M10.7243 19.9878H10.7259C10.8502 19.988 10.9695 19.9413 11.0575 19.8579C11.1456 19.7745 11.1952 19.6613 11.1954 19.5432C11.1956 19.4251 11.1464 19.3118 11.0586 19.2281C10.9708 19.1445 10.8517 19.0974 10.7274 19.0972L10.2698 19.0957H10.2681C10.1438 19.0955 10.0245 19.1423 9.93646 19.2257C9.84842 19.309 9.79884 19.4222 9.79865 19.5403C9.79845 19.6584 9.84765 19.7718 9.93541 19.8554C10.0232 19.9391 10.1423 19.9862 10.2667 19.9864L10.7243 19.9878Z" fill="white"/>
<path d="M9.02741 19.9826C9.15173 19.9829 9.2711 19.9363 9.35927 19.8531C9.44743 19.7698 9.49716 19.6567 9.49753 19.5386C9.49789 19.4205 9.44885 19.3071 9.3612 19.2233C9.27355 19.1395 9.15446 19.0923 9.03014 19.092L6.50257 19.0777H6.49999C6.43843 19.0775 6.37744 19.0889 6.3205 19.1111C6.26357 19.1333 6.21179 19.166 6.16814 19.2072C6.12449 19.2485 6.08982 19.2975 6.0661 19.3514C6.04238 19.4054 6.03008 19.4633 6.02991 19.5218C6.02973 19.5802 6.04169 19.6382 6.06508 19.6923C6.08848 19.7464 6.12286 19.7955 6.16626 19.837C6.20967 19.8785 6.26124 19.9114 6.31805 19.9339C6.37485 19.9565 6.43577 19.9682 6.49733 19.9683L9.02491 19.9826H9.02741Z" fill="white"/>
<path d="M33.7398 31.1754L32.7183 31.8598C32.6674 31.8933 32.624 31.936 32.5905 31.9855C32.5571 32.035 32.5343 32.0903 32.5235 32.1482C32.5127 32.2061 32.5141 32.2655 32.5275 32.3229C32.541 32.3803 32.5663 32.4346 32.602 32.4826C32.6377 32.5307 32.683 32.5716 32.7354 32.6029C32.7878 32.6342 32.8462 32.6553 32.9073 32.6651C32.9683 32.6749 33.0308 32.673 33.0911 32.6597C33.1514 32.6464 33.2083 32.6219 33.2586 32.5876L34.2802 31.9032C34.3805 31.8347 34.4484 31.7313 34.4689 31.6155C34.4894 31.4997 34.4609 31.3809 34.3897 31.2849C34.3184 31.189 34.2102 31.1236 34.0885 31.1031C33.9668 31.0826 33.8415 31.1086 33.7398 31.1754Z" fill="white"/>
<path d="M29.6536 33.9129L28.6321 34.5972C28.5818 34.6309 28.5389 34.6737 28.506 34.7231C28.4731 34.7726 28.4508 34.8277 28.4403 34.8853C28.4298 34.9429 28.4314 35.0019 28.4449 35.059C28.4585 35.116 28.4837 35.17 28.5191 35.2178C28.5546 35.2656 28.5997 35.3063 28.6517 35.3375C28.7037 35.3688 28.7617 35.39 28.8224 35.4C28.883 35.4099 28.9452 35.4084 29.0052 35.3956C29.0653 35.3827 29.1221 35.3588 29.1724 35.3251L30.1939 34.6407C30.2448 34.6072 30.2882 34.5645 30.3216 34.515C30.3551 34.4655 30.3778 34.4102 30.3887 34.3523C30.3995 34.2944 30.3981 34.235 30.3846 34.1776C30.3712 34.1202 30.3459 34.0659 30.3102 34.0179C30.2745 33.9698 30.2291 33.9289 30.1767 33.8976C30.1244 33.8663 30.0659 33.8452 30.0049 33.8354C29.9438 33.8256 29.8814 33.8275 29.8211 33.8408C29.7608 33.8541 29.7038 33.8786 29.6536 33.9129Z" fill="white"/>
<path d="M35.7829 29.8067L34.7614 30.4911C34.6598 30.5591 34.5908 30.6628 34.5696 30.7791C34.5484 30.8955 34.5768 31.0151 34.6484 31.1117C34.7201 31.2082 34.8291 31.2737 34.9517 31.2938C35.0742 31.3139 35.2001 31.287 35.3017 31.2189L36.3232 30.5346C36.4248 30.4665 36.4938 30.3629 36.515 30.2465C36.5362 30.1301 36.5078 30.0105 36.4362 29.914C36.3645 29.8175 36.2554 29.7519 36.1329 29.7318C36.0104 29.7117 35.8845 29.7386 35.7829 29.8067Z" fill="white"/>
<path d="M31.6968 32.5442L30.6753 33.2286C30.6245 33.2621 30.5813 33.3048 30.548 33.3543C30.5147 33.4038 30.4921 33.459 30.4813 33.5168C30.4706 33.5747 30.4721 33.6339 30.4855 33.6912C30.499 33.7485 30.5243 33.8027 30.5599 33.8507C30.5955 33.8987 30.6408 33.9395 30.693 33.9708C30.7453 34.0021 30.8036 34.0233 30.8645 34.0331C30.9255 34.0429 30.9878 34.0412 31.0481 34.0281C31.1083 34.0149 31.1652 33.9905 31.2155 33.9564L32.237 33.272C32.2878 33.2385 32.331 33.1958 32.3643 33.1463C32.3976 33.0968 32.4202 33.0416 32.4309 32.9838C32.4417 32.926 32.4402 32.8667 32.4268 32.8094C32.4133 32.7521 32.388 32.6979 32.3524 32.6499C32.3168 32.6019 32.2715 32.5611 32.2192 32.5298C32.167 32.4985 32.1087 32.4773 32.0478 32.4675C31.9868 32.4577 31.9245 32.4594 31.8642 32.4725C31.804 32.4857 31.7471 32.5101 31.6968 32.5442Z" fill="white"/>
<path d="M37.826 28.438L36.8047 29.1224C36.7535 29.1557 36.7098 29.1984 36.6761 29.2479C36.6424 29.2975 36.6194 29.3529 36.6084 29.4109C36.5974 29.4689 36.5987 29.5285 36.6121 29.5861C36.6256 29.6436 36.6509 29.6981 36.6867 29.7463C36.7225 29.7945 36.768 29.8355 36.8205 29.8668C36.8731 29.8982 36.9317 29.9193 36.993 29.929C37.0542 29.9386 37.1168 29.9366 37.1773 29.9231C37.2377 29.9096 37.2947 29.8848 37.3449 29.8502L38.3665 29.1659C38.4172 29.1323 38.4605 29.0896 38.4938 29.0401C38.527 28.9907 38.5497 28.9354 38.5604 28.8776C38.5711 28.8198 38.5697 28.7605 38.5562 28.7032C38.5427 28.6459 38.5175 28.5917 38.4819 28.5437C38.4462 28.4958 38.401 28.4549 38.3487 28.4236C38.2964 28.3923 38.2381 28.3711 38.1772 28.3613C38.1163 28.3515 38.0539 28.3532 37.9937 28.3664C37.9335 28.3795 37.8766 28.4039 37.8263 28.438H37.826Z" fill="white"/>
<path d="M26.8268 6.0173C26.71 5.9771 26.5811 5.98263 26.4685 6.03266C26.356 6.0827 26.269 6.17314 26.2266 6.28411L25.9181 7.09198C25.8968 7.14703 25.8872 7.20552 25.8897 7.26412C25.8923 7.32271 25.907 7.38024 25.9331 7.43342C25.9591 7.48659 25.9959 7.53436 26.0414 7.57397C26.087 7.61359 26.1403 7.64427 26.1983 7.66427C26.2563 7.68426 26.3179 7.69317 26.3796 7.69047C26.4413 7.68778 26.5018 7.67355 26.5576 7.64859C26.6135 7.62362 26.6636 7.58843 26.7051 7.54502C26.7466 7.5016 26.7787 7.45083 26.7995 7.39561L27.1079 6.58782C27.1289 6.53282 27.1383 6.47444 27.1355 6.416C27.1327 6.35756 27.1179 6.30021 27.0918 6.24723C27.0657 6.19425 27.0288 6.14667 26.9834 6.10722C26.9379 6.06777 26.8847 6.03721 26.8268 6.0173Z" fill="white"/>
<path d="M27.5686 5.38035L28.7706 2.23162C28.7919 2.17658 28.8016 2.11808 28.799 2.05949C28.7965 2.00089 28.7817 1.94336 28.7557 1.89019C28.7297 1.83701 28.6929 1.78925 28.6473 1.74963C28.6018 1.71002 28.5485 1.67933 28.4905 1.65934C28.4325 1.63934 28.3708 1.63044 28.3092 1.63313C28.2475 1.63582 28.187 1.65005 28.1311 1.67502C28.0753 1.69998 28.0252 1.73518 27.9837 1.77859C27.9422 1.822 27.9101 1.87277 27.8893 1.92799L26.6875 5.07657C26.6665 5.13155 26.6571 5.18991 26.6599 5.24833C26.6626 5.30676 26.6775 5.36409 26.7036 5.41707C26.7296 5.47004 26.7664 5.51762 26.8119 5.55708C26.8573 5.59654 26.9105 5.62711 26.9683 5.64706C27.0262 5.667 27.0876 5.67591 27.1491 5.6733C27.2106 5.67069 27.271 5.65659 27.3268 5.63182C27.3825 5.60704 27.4326 5.57208 27.4741 5.52892C27.5157 5.48576 27.5479 5.43525 27.5688 5.38028L27.5686 5.38035Z" fill="white"/>
<path d="M30.535 3.1782L29.3508 6.28055C29.3084 6.39158 29.3142 6.51406 29.3668 6.62104C29.4195 6.72803 29.5147 6.81076 29.6316 6.85103C29.7485 6.8913 29.8774 6.88582 29.99 6.83579C30.1026 6.78576 30.1897 6.69528 30.2321 6.58425L31.4163 3.48191C31.4587 3.37088 31.453 3.2484 31.4003 3.14141C31.3476 3.03443 31.2524 2.9517 31.1355 2.91143C31.0186 2.87115 30.8897 2.87663 30.7771 2.92666C30.6645 2.97669 30.5774 3.06718 30.535 3.1782Z" fill="white"/>
<path d="M31.2905 2.50519C31.3484 2.52519 31.4098 2.53415 31.4713 2.53156C31.5329 2.52897 31.5932 2.51487 31.649 2.49009C31.7048 2.46531 31.7549 2.43032 31.7964 2.38713C31.8379 2.34393 31.8701 2.29339 31.891 2.23837L32.139 1.58874C32.1795 1.47815 32.1725 1.35687 32.1196 1.25115C32.0666 1.14542 31.972 1.06376 31.8561 1.02384C31.7403 0.983925 31.6125 0.98896 31.5005 1.03786C31.3885 1.08676 31.3013 1.17558 31.2578 1.28511L31.0097 1.93467C30.9887 1.98965 30.9793 2.04801 30.9821 2.10644C30.9848 2.16486 30.9997 2.2222 31.0257 2.27518C31.0518 2.32816 31.0886 2.37574 31.1341 2.4152C31.1795 2.45467 31.2327 2.48525 31.2905 2.50519Z" fill="white"/>
<path d="M31.7215 9.55701C31.7794 9.57696 31.8408 9.58588 31.9023 9.58326C31.9638 9.58065 32.0242 9.56655 32.0799 9.54178C32.1357 9.517 32.1858 9.48203 32.2273 9.43886C32.2689 9.39569 32.3011 9.34518 32.322 9.29019L32.6304 8.4824C32.6728 8.37137 32.667 8.24889 32.6144 8.1419C32.5617 8.03492 32.4665 7.95219 32.3496 7.91191C32.2327 7.87164 32.1038 7.87712 31.9912 7.92715C31.8786 7.97718 31.7915 8.06766 31.7491 8.17869L31.4406 8.98649C31.4196 9.04147 31.4103 9.09984 31.413 9.15827C31.4158 9.2167 31.4306 9.27404 31.4567 9.32702C31.4828 9.38 31.5196 9.42757 31.565 9.46704C31.6104 9.5065 31.6636 9.53707 31.7215 9.55701Z" fill="white"/>
<path d="M33.0913 7.27492L34.2933 4.12656C34.3144 4.07159 34.3238 4.01321 34.3211 3.95478C34.3184 3.89634 34.3036 3.83898 34.2775 3.78598C34.2515 3.73298 34.2147 3.68537 34.1693 3.64587C34.1239 3.60638 34.0707 3.57576 34.0128 3.55578C33.955 3.5358 33.8935 3.52685 33.832 3.52942C33.7705 3.532 33.7101 3.54607 33.6543 3.57081C33.5985 3.59556 33.5484 3.6305 33.5068 3.67364C33.4653 3.71679 33.433 3.76729 33.412 3.82227L32.21 6.97122C32.189 7.02619 32.1796 7.08456 32.1824 7.14298C32.1851 7.2014 32.1999 7.25874 32.226 7.31171C32.2521 7.36469 32.2889 7.41226 32.3343 7.45172C32.3798 7.49119 32.4329 7.52176 32.4908 7.5417C32.5487 7.56164 32.6101 7.57056 32.6716 7.56795C32.7331 7.56533 32.7935 7.55124 32.8492 7.52646C32.905 7.50169 32.9551 7.46673 32.9966 7.42357C33.0381 7.38041 33.0703 7.3299 33.0913 7.27492Z" fill="white"/>
<path d="M3.78127 10.7308C3.87778 10.7308 3.97194 10.7025 4.05088 10.6498C4.12983 10.5971 4.18972 10.5225 4.22237 10.4362L4.41549 9.92623L8.12151 11.5121C9.17101 12.0196 10.325 12.302 11.5019 12.3395L12.3649 12.3659C12.138 12.5905 11.9703 12.8629 11.8754 13.1609C11.7806 13.4588 11.7613 13.7739 11.8192 14.0803C11.8433 14.2055 11.8958 14.3242 11.9732 14.4281C12.0505 14.532 12.1508 14.6186 12.267 14.682C12.3832 14.7453 12.5125 14.7838 12.6459 14.7948C12.7794 14.8058 12.9138 14.789 13.0397 14.7456C13.0496 14.7422 13.0593 14.7382 13.0689 14.7345L14.4664 14.1504L13.9899 15.3987C13.9017 15.6298 13.8623 15.8752 13.8739 16.1207C13.8856 16.3663 13.9481 16.6073 14.0579 16.8299C14.1677 17.0524 14.3226 17.2523 14.5137 17.418C14.7049 17.5837 14.9285 17.7119 15.1719 17.7954L32.4257 23.7143C32.9164 23.8827 33.4574 23.8591 33.9298 23.6488C34.4022 23.4385 34.7675 23.0587 34.9453 22.5928L37.917 14.8082C38.0053 14.5771 38.0446 14.3317 38.0329 14.0861C38.0212 13.8405 37.9586 13.5995 37.8488 13.3769C37.7389 13.1543 37.584 12.9544 37.3928 12.7888C37.2015 12.6231 36.9778 12.4949 36.7344 12.4114L20.1613 6.72628L16.8973 3.54349C16.6329 3.25577 16.2866 3.04674 15.9002 2.94153C15.5137 2.83633 15.1034 2.83944 14.7188 2.95048C11.2508 3.95867 8.00651 3.93648 6.70682 3.87421L6.83557 3.53428C6.85778 3.47559 6.86676 3.41311 6.86194 3.35091C6.85711 3.2887 6.83858 3.22815 6.80755 3.17318C6.77652 3.11822 6.73368 3.07005 6.68181 3.03182C6.62994 2.99358 6.57019 2.96612 6.50643 2.95122L2.47752 2.00953C2.41429 1.99476 2.34851 1.99266 2.28438 2.00337C2.22024 2.01408 2.15916 2.03738 2.10502 2.07176C2.05089 2.10614 2.00489 2.15086 1.96996 2.20307C1.93503 2.25528 1.91193 2.31383 1.90213 2.37499L0.786587 9.33285C0.770337 9.43428 0.791457 9.53794 0.846376 9.62629C0.901296 9.71463 0.986645 9.78226 1.08799 9.81772L3.61924 10.7034C3.67112 10.7215 3.72598 10.7308 3.78127 10.7308ZM12.7377 13.9C12.7043 13.7015 12.7299 13.4981 12.8117 13.3128C12.8934 13.1274 13.0281 12.9675 13.2004 12.8509L13.8119 12.4387C14.1599 12.4797 14.5042 12.5453 14.8419 12.6348L15.0263 12.6838L14.9085 12.9926L12.7377 13.9ZM19.1626 7.3305L36.4164 13.2494C36.5439 13.2931 36.6611 13.3603 36.7612 13.4471C36.8613 13.5338 36.9425 13.6385 37 13.7551C37.0575 13.8717 37.0902 13.998 37.0964 14.1266C37.1025 14.2552 37.0818 14.3837 37.0356 14.5048L34.0638 22.2891C33.9703 22.5329 33.7789 22.7316 33.5316 22.8417C33.2842 22.9518 33.001 22.9643 32.744 22.8765L15.4903 16.9576C15.3628 16.9139 15.2456 16.8467 15.1455 16.7599C15.0454 16.6732 14.9642 16.5685 14.9067 16.4519C14.8492 16.3353 14.8164 16.2091 14.8103 16.0804C14.8042 15.9518 14.8248 15.8233 14.871 15.7022L15.9316 12.9241L16.5264 13.082L16.4158 13.364C16.3665 13.5014 16.3766 13.6517 16.4437 13.782C16.5108 13.9124 16.6295 14.0122 16.7739 14.0595L16.7803 14.0616C17.6614 14.3742 17.9717 14.771 17.4841 16.2854C17.4392 16.4163 17.4485 16.5585 17.5101 16.683C17.5717 16.8075 17.681 16.9051 17.8156 16.9558L30.5171 21.4446C30.5767 21.4657 30.6397 21.4764 30.7032 21.4764C30.8153 21.475 30.9246 21.4428 31.0178 21.3837C31.1111 21.3247 31.1844 21.2412 31.2288 21.1435C31.7757 19.9708 32.2049 19.5131 33.3005 19.9C33.3032 19.9011 33.3062 19.902 33.3092 19.9031C33.4504 19.9546 33.6073 19.9514 33.7461 19.8942C33.8849 19.8369 33.9945 19.7302 34.0513 19.597L35.2724 16.4868C35.2975 16.4226 35.309 16.3544 35.3061 16.286C35.3032 16.2175 35.2861 16.1504 35.2556 16.0883C35.1885 15.9523 35.0682 15.8465 34.9203 15.7933C34.9179 15.7923 34.9155 15.7915 34.9131 15.7907C33.7218 15.3697 33.7544 14.888 34.1378 13.7184C34.1782 13.5788 34.1612 13.4298 34.0901 13.3018C34.0189 13.1737 33.8991 13.0763 33.7549 13.0292L21.1646 8.57968C21.0236 8.52668 20.8666 8.52653 20.7254 8.57927C20.5842 8.63201 20.4694 8.7337 20.4041 8.86378C19.9114 9.93469 19.5383 10.3165 18.6083 10.0698L17.1905 9.62616L17.8428 7.9175C17.9363 7.67371 18.1276 7.47505 18.375 7.36499C18.6223 7.25494 18.9056 7.24268 19.1626 7.3305ZM14.9928 3.80214C15.2061 3.74077 15.4336 3.73966 15.6475 3.79897C15.8614 3.85827 16.0525 3.97542 16.1976 4.13612C16.2038 4.14288 16.2102 4.14956 16.2168 4.15594L18.521 6.40276C18.1704 6.45276 17.8404 6.59169 17.566 6.80492C17.2915 7.01814 17.0826 7.29777 16.9614 7.61431L16.7361 8.20457C15.9383 8.3063 15.1295 8.30263 14.3327 8.19366L14.1503 7.94228C14.1159 7.89311 14.0715 7.85094 14.0197 7.81823C13.9679 7.78552 13.9098 7.76293 13.8487 7.75177C13.7876 7.74061 13.7248 7.74111 13.664 7.75323C13.6031 7.76535 13.5454 7.78886 13.4942 7.82238C13.443 7.8559 13.3993 7.89877 13.3657 7.94848C13.3321 7.9982 13.3093 8.05376 13.2985 8.11195C13.2877 8.17013 13.2892 8.22977 13.303 8.28739C13.3167 8.34501 13.3424 8.39946 13.3785 8.44757L13.6753 8.85666C14.047 9.36659 14.5833 9.74775 15.2031 9.94255L19.7219 11.3555C19.83 11.3928 19.9289 11.451 20.0124 11.5263C20.0958 11.6016 20.162 11.6924 20.2068 11.7931C20.2516 11.8938 20.274 12.0022 20.2728 12.1116C20.2715 12.2209 20.2465 12.3288 20.1993 12.4285C20.1148 12.6056 19.9653 12.7474 19.7787 12.8275C19.5922 12.9075 19.3813 12.9204 19.1856 12.8636L19.1746 12.8605L15.0941 11.7769C14.476 11.6129 13.8393 11.52 13.1979 11.5003L11.5319 11.4493C10.4894 11.4162 9.46729 11.1653 8.5383 10.7146C8.53127 10.7111 8.52409 10.7079 8.51698 10.7048L4.73362 9.08562L6.37549 4.7491C7.51198 4.82599 11.0711 4.94236 14.9928 3.80214ZM16.3798 9.13773L16.2996 9.34784L15.7233 9.16764C15.9674 9.1643 16.1881 9.15279 16.3798 9.13773ZM1.77104 9.10767L2.75174 2.991L5.77729 3.69786L3.50002 9.71255L1.77104 9.10767Z" fill="white"/>
<path d="M24.6972 18.0076C25.0494 18.1288 25.4211 18.1908 25.7956 18.1909C26.3481 18.1896 26.8914 18.056 27.3752 17.8027C27.8591 17.5493 28.2679 17.1842 28.5641 16.7411C28.8602 16.298 29.0341 15.7911 29.0697 15.2673C29.1052 14.7435 29.0013 14.2197 28.7675 13.7441C28.5877 13.3764 28.3328 13.0463 28.0177 12.7728C27.7025 12.4994 27.3333 12.2882 26.9316 12.1513C26.3213 11.9463 25.6608 11.9172 25.0331 12.0677C24.4055 12.2182 23.8386 12.5414 23.4037 12.997C22.9689 13.4525 22.6854 14.0199 22.5888 14.628C22.4923 15.2361 22.5871 15.8577 22.8613 16.4148C23.0411 16.7825 23.296 17.1126 23.6112 17.3861C23.9263 17.6595 24.2955 17.8708 24.6972 18.0076ZM23.631 14.3311C23.7947 13.9009 24.0937 13.5289 24.4874 13.2656C24.8811 13.0022 25.3505 12.8601 25.832 12.8587C26.2703 12.8591 26.6993 12.9782 27.0688 13.2019C27.4384 13.4256 27.7331 13.7448 27.9186 14.122C28.1141 14.5196 28.1818 14.9632 28.1131 15.3972C28.0444 15.8312 27.8425 16.2363 27.5325 16.5617C27.2226 16.8872 26.8184 17.1185 26.3707 17.2266C25.923 17.3348 25.4516 17.3151 25.0156 17.1699C24.7299 17.0725 24.4674 16.9222 24.2433 16.7278C24.0192 16.5333 23.838 16.2984 23.7102 16.0369C23.5788 15.7717 23.5041 15.4844 23.4905 15.1916C23.4769 14.8987 23.5246 14.6063 23.631 14.3311Z" fill="white"/>
<path d="M14.3398 5.58423C14.3807 5.58434 14.4214 5.57935 14.461 5.56939C14.625 5.52783 14.7908 5.48389 14.9532 5.43899C15.0725 5.40595 15.1732 5.32922 15.233 5.22568C15.2928 5.12213 15.3068 5.00026 15.2721 4.88687C15.2373 4.77348 15.1565 4.67786 15.0475 4.62105C14.9385 4.56423 14.8102 4.55087 14.6909 4.58391C14.5355 4.62696 14.3768 4.66897 14.2194 4.7089C14.1093 4.7366 14.0136 4.80142 13.9502 4.89127C13.8867 4.98111 13.8599 5.08983 13.8746 5.1971C13.8894 5.30438 13.9448 5.40288 14.0304 5.47421C14.116 5.54553 14.2261 5.5848 14.3399 5.58468L14.3398 5.58423Z" fill="white"/>
<path d="M8.55541 6.34519H8.56541C10.0417 6.31686 11.5126 6.16729 12.9617 5.89817C13.0837 5.87536 13.1912 5.80744 13.2604 5.70937C13.3297 5.6113 13.3551 5.49111 13.3311 5.37523C13.3071 5.25935 13.2356 5.15727 13.1324 5.09147C13.0291 5.02566 12.9026 5.00151 12.7806 5.02432C11.3847 5.28348 9.96778 5.42751 8.54572 5.45479C8.4214 5.45601 8.30268 5.5041 8.21568 5.58847C8.12868 5.67285 8.08053 5.7866 8.08181 5.9047C8.0831 6.02281 8.13371 6.13559 8.22253 6.21824C8.31135 6.30089 8.43109 6.34663 8.55541 6.34541V6.34519Z" fill="white"/>
<path d="M28.0157 15.0096L27.855 15.4106L25.9027 14.705L25.287 16.2423C25.2171 16.4168 25.1921 16.5438 25.2119 16.6232C25.2356 16.704 25.317 16.7696 25.4562 16.8199C25.569 16.8607 25.6915 16.8773 25.8237 16.8698C25.9597 16.8637 26.0891 16.8361 26.2121 16.7871C26.3389 16.7394 26.4513 16.6737 26.5494 16.5902C26.6489 16.5029 26.721 16.4035 26.7656 16.2921C26.8013 16.203 26.8025 16.1248 26.7692 16.0575C26.7396 15.9915 26.6684 15.9382 26.5555 15.8974C26.454 15.8607 26.3555 15.8378 26.26 15.8288L26.3553 15.4297C26.4267 15.4342 26.4996 15.4457 26.574 15.4641C26.6537 15.4802 26.7312 15.5018 26.8064 15.529C27.0058 15.601 27.1475 15.7096 27.2315 15.8548C27.3207 15.9975 27.3215 16.1785 27.2337 16.3975C27.1653 16.5684 27.0578 16.7186 26.9111 16.8484C26.7696 16.9758 26.6059 17.0782 26.4199 17.1555C26.2354 17.2291 26.0444 17.2705 25.8468 17.2799C25.6493 17.2893 25.4621 17.262 25.2853 17.1981C25.1461 17.1478 25.0373 17.0915 24.959 17.0291C24.8821 16.9631 24.8247 16.8913 24.7868 16.8139C24.764 16.7631 24.7465 16.7101 24.7343 16.6546C24.7235 16.5955 24.7244 16.5235 24.7368 16.4387C24.7544 16.3516 24.79 16.2412 24.8436 16.1075L25.4682 14.5479L24.9208 14.3501L25.0814 13.9491L28.0157 15.0096ZM25.9235 12.653C26.0326 12.6924 26.1207 12.7413 26.1878 12.7995C26.2586 12.8591 26.3104 12.9289 26.343 13.0087C26.3825 13.1037 26.3946 13.2186 26.3794 13.3534C26.3694 13.4858 26.3205 13.6615 26.2328 13.8806L26.0454 14.3485L25.6109 14.1915L25.7894 13.7459C25.8414 13.6159 25.8752 13.5048 25.8905 13.4126C25.9112 13.3181 25.9022 13.2383 25.8636 13.1733C25.8265 13.1047 25.7516 13.0499 25.6387 13.0092C25.5672 12.9833 25.4913 12.9686 25.4109 12.9651C25.3358 12.9592 25.27 12.9567 25.2137 12.9575L25.1996 12.5571C25.3318 12.5497 25.455 12.5538 25.5693 12.5696C25.6888 12.583 25.8068 12.6108 25.9235 12.653Z" fill="#EC1C24"/>
</svg>
